<?xml version="1.0" encoding="UTF-8" standalone="no"?>
<!-- Generated by Jules, Phase 13, Batch B, 2026-03-20 -->
<svg xmlns="http://www.w3.org/2000/svg" viewBox="0 0 2816 1536" width="100%" height="100%">
  <defs>
    <style>
      .region { fill-opacity: 0.3; stroke-width: 2px; }
      .route { fill: none; stroke-width: 3px; stroke-dasharray: 5,5; }
      .label { font-family: 'Inter', sans-serif; font-size: 20px; fill: #333; font-weight: bold; }
      .title { font-family: 'Inter', sans-serif; font-size: 32px; font-weight: bold; fill: #000; }
    </style>
  </defs>

  <g id="regions">
    <path id="region-africa-proconsularis" class="region" d="M 1258,618 L 1558,618 L 1558,918 L 1258,918 Z" fill="hsl(0, 70%, 50%)" stroke="hsl(0, 70%, 50%)" />
    <path id="region-numidia" class="region" d="M 1308,668 L 1608,668 L 1608,968 L 1308,968 Z" fill="hsl(30, 80%, 50%)" stroke="hsl(30, 80%, 50%)" />
    <path id="region-mauretania-caesariensis" class="region" d="M 1358,718 L 1658,718 L 1658,1018 L 1358,1018 Z" fill="hsl(120, 60%, 50%)" stroke="hsl(120, 60%, 50%)" />
    <path id="region-mauretania-tingitana" class="region" d="M 1408,768 L 1708,768 L 1708,1068 L 1408,1068 Z" fill="hsl(210, 60%, 50%)" stroke="hsl(210, 60%, 50%)" />
    <path id="region-cyrenaica" class="region" d="M 1458,818 L 1758,818 L 1758,1118 L 1458,1118 Z" fill="hsl(270, 60%, 50%)" stroke="hsl(270, 60%, 50%)" />
  </g>

  <g id="routes">
    <path id="route-mediterranean-coastal-road--via-" class="route" d="M 704,768 L 2112,768" stroke="hsl(0, 70%, 50%)" />
    <path id="route-trans-maghreb-route" class="route" d="M 704,788 L 2112,788" stroke="hsl(30, 80%, 30%)" />
    <path id="route-limes-tripolitanus--frontier-" class="route" d="M 704,808 L 2112,808" stroke="hsl(0, 0%, 20%)" />
  </g>

  <g id="settlements">
    <g id="site-carthage">
      <circle cx="1622.6248648648648" cy="176.63999999999976" r="6" fill="#000" />
      <text x="1630.6248648648648" y="182.63999999999976" class="label">Carthage</text>
    </g>
    <g id="site-hippo-regius">
      <circle cx="1435.398918918919" cy="172.03199999999958" r="6" fill="#000" />
      <text x="1443.398918918919" y="178.03199999999958" class="label">Hippo Regius</text>
    </g>
    <g id="site-cirta--constantine-">
      <circle cx="1340.2637837837838" cy="250.3680000000004" r="6" fill="#000" />
      <text x="1348.2637837837838" y="256.3680000000004" class="label">Cirta (Constantine)</text>
    </g>
    <g id="site-thagaste">
      <circle cx="1455.187027027027" cy="264.1919999999998" r="6" fill="#000" />
      <text x="1463.187027027027" y="270.1919999999998" class="label">Thagaste</text>
    </g>
    <g id="site-thamugadi--timgad-">
      <circle cx="1329.6086486486486" cy="387.0720000000005" r="6" fill="#000" />
      <text x="1337.6086486486486" y="393.0720000000005" class="label">Thamugadi (Timgad)</text>
    </g>
    <g id="site-caesarea">
      <circle cx="1003.8659459459459" cy="213.5040000000001" r="6" fill="#000" />
      <text x="1011.8659459459459" y="219.5040000000001" class="label">Caesarea</text>
    </g>
    <g id="site-tingis--tangier-">
      <circle cx="395.7621621621622" cy="344.0640000000003" r="6" fill="#000" />
      <text x="403.7621621621622" y="350.0640000000003" class="label">Tingis (Tangier)</text>
    </g>
    <g id="site-volubilis">
      <circle cx="414.7891891891892" cy="603.6479999999999" r="6" fill="#000" />
      <text x="422.7891891891892" y="609.6479999999999" class="label">Volubilis</text>
    </g>
    <g id="site-leptis-magna">
      <circle cx="1924.774054054054" cy="823.2959999999998" r="6" fill="#000" />
      <text x="1932.774054054054" y="829.2959999999998" class="label">Leptis Magna</text>
    </g>
    <g id="site-sabratha">
      <circle cx="1787.0183783783782" cy="798.7200000000004" r="6" fill="#000" />
      <text x="1795.0183783783782" y="804.7200000000004" class="label">Sabratha</text>
    </g>
    <g id="site-oea--tripoli-">
      <circle cx="1840.294054054054" cy="783.3600000000001" r="6" fill="#000" />
      <text x="1848.294054054054" y="789.3600000000001" class="label">Oea (Tripoli)</text>
    </g>
    <g id="site-cyrene">
      <circle cx="2500.9124324324325" cy="795.648" r="6" fill="#000" />
      <text x="2508.9124324324325" y="801.648" class="label">Cyrene</text>
    </g>
    <g id="site-apollonia">
      <circle cx="2509.284324324324" cy="783.3600000000001" r="6" fill="#000" />
      <text x="2517.284324324324" y="789.3600000000001" class="label">Apollonia</text>
    </g>
    <g id="site-berenice--benghazi-">
      <circle cx="2417.9545945945947" cy="909.3120000000004" r="6" fill="#000" />
      <text x="2425.9545945945947" y="915.3120000000004" class="label">Berenice (Benghazi)</text>
    </g>
    <g id="site-carthage-christian-center">
      <circle cx="1548" cy="908" r="6" fill="#000" />
      <text x="1556" y="914" class="label">Carthage Christian Center</text>
    </g>
    <g id="site-hippo-regius-basilica">
      <circle cx="1558" cy="918" r="6" fill="#000" />
      <text x="1566" y="924" class="label">Hippo Regius Basilica</text>
    </g>
    <g id="site-martyrdom-sites">
      <circle cx="1568" cy="928" r="6" fill="#000" />
      <text x="1576" y="934" class="label">Martyrdom Sites</text>
    </g>
  </g>

  <text x="40" y="60" class="title">Roman North Africa</text>
</svg>