<!-- Generated by Jules, Phase 13, Batch B, 2026-03-20 -->
<svg xmlns="http://www.w3.org/2000/svg" viewBox="0 0 2816 1536" width="2816" height="1536">
  <g id="routes">
    <path id="nile-river-navigation" d="M 1200 500 Q 1450 550 1500 800" fill="none" stroke="hsl(210, 60%, 50%)" stroke-width="4" stroke-dasharray="0" />
    <text x="1450" y="530" font-family="Inter, sans-serif" font-size="20" fill="hsl(210, 60%, 50%)" text-anchor="middle" font-weight="bold">Nile River Navigation</text>
    <path id="red-sea-trade-route" d="M 1250 550 Q 1500 600 1550 850" fill="none" stroke="hsl(0, 70%, 50%)" stroke-width="4" stroke-dasharray="10,10" />
    <text x="1500" y="580" font-family="Inter, sans-serif" font-size="20" fill="hsl(0, 70%, 50%)" text-anchor="middle" font-weight="bold">Red Sea Trade Route</text>
    <path id="grain-export-route" d="M 1300 600 Q 1550 650 1600 900" fill="none" stroke="hsl(45, 80%, 50%)" stroke-width="4" stroke-dasharray="4,4" />
    <text x="1550" y="630" font-family="Inter, sans-serif" font-size="20" fill="hsl(45, 80%, 50%)" text-anchor="middle" font-weight="bold">Grain Export Route</text>
  </g>
  <g id="settlements">
    <rect id="alexandria" x="1092" y="592" width="16" height="16" fill="hsl(45, 80%, 50%)" stroke="black" stroke-width="1" />
    <text x="1100" y="615" font-family="Inter, sans-serif" font-size="14" fill="#000" text-anchor="middle" font-weight="bold">ALEXANDRIA</text>
    <text x="1100" y="630" font-family="Inter, sans-serif" font-size="14" fill="#000" text-anchor="middle" font-weight="bold">(Founded 331 BC, Alexander the Great)</text>
    <rect id="memphis" x="1242" y="592" width="16" height="16" fill="hsl(30, 60%, 40%)" stroke="black" stroke-width="1" />
    <text x="1250" y="615" font-family="Inter, sans-serif" font-size="14" fill="#000" text-anchor="middle" font-weight="bold">Memphis</text>
    <text x="1250" y="630" font-family="Inter, sans-serif" font-size="14" fill="#000" text-anchor="middle" font-weight="bold">(Ancient capital, near modern Cairo)</text>
    <circle id="oxyrhynchus" cx="1400" cy="600" r="6" fill="hsl(270, 60%, 50%)" stroke="black" stroke-width="1" />
    <text x="1400" y="615" font-family="Inter, sans-serif" font-size="14" fill="#000" text-anchor="middle" font-weight="bold">Oxyrhynchus (Al-Bahnasa)</text>
    <text x="1400" y="630" font-family="Inter, sans-serif" font-size="14" fill="#000" text-anchor="middle" font-weight="bold">(Papyri discoveries: Gospel of Thomas, etc.)</text>
    <rect id="thebes--luxor-" x="1542" y="592" width="16" height="16" fill="hsl(30, 60%, 40%)" stroke="black" stroke-width="1" />
    <text x="1550" y="615" font-family="Inter, sans-serif" font-size="14" fill="#000" text-anchor="middle" font-weight="bold">Thebes (Luxor)</text>
    <text x="1550" y="630" font-family="Inter, sans-serif" font-size="14" fill="#000" text-anchor="middle" font-weight="bold">(New Kingdom capital)</text>
    <circle id="syene--aswan-" cx="1700" cy="600" r="6" fill="#000" stroke="black" stroke-width="1" />
    <text x="1700" y="615" font-family="Inter, sans-serif" font-size="14" fill="#000" text-anchor="middle" font-weight="bold">Syene (Aswan)</text>
    <text x="1700" y="630" font-family="Inter, sans-serif" font-size="14" fill="#000" text-anchor="middle" font-weight="bold">(First Cataract, southern frontier)</text>
    <path id="nitria" d="M 1096 690 L 1104 690 L 1104 696 L 1110 696 L 1110 704 L 1104 704 L 1104 712 L 1096 712 L 1096 704 L 1090 704 L 1090 696 L 1096 696 Z" fill="hsl(30, 60%, 40%)" stroke="black" stroke-width="1" />
    <text x="1100" y="715" font-family="Inter, sans-serif" font-size="14" fill="#000" text-anchor="middle" font-weight="bold">NITRIA</text>
    <text x="1100" y="730" font-family="Inter, sans-serif" font-size="14" fill="#000" text-anchor="middle" font-weight="bold">(Founded c. 330 AD, Amoun)</text>
    <path id="scetis--wadi-el-natrun-" d="M 1246 690 L 1254 690 L 1254 696 L 1260 696 L 1260 704 L 1254 704 L 1254 712 L 1246 712 L 1246 704 L 1240 704 L 1240 696 L 1246 696 Z" fill="hsl(30, 60%, 40%)" stroke="black" stroke-width="1" />
    <text x="1250" y="715" font-family="Inter, sans-serif" font-size="14" fill="#000" text-anchor="middle" font-weight="bold">SCETIS (Wadi el-Natrun)</text>
    <text x="1250" y="730" font-family="Inter, sans-serif" font-size="14" fill="#000" text-anchor="middle" font-weight="bold">(Extreme asceticism)</text>
    <path id="kellia---the-cells--" d="M 1396 690 L 1404 690 L 1404 696 L 1410 696 L 1410 704 L 1404 704 L 1404 712 L 1396 712 L 1396 704 L 1390 704 L 1390 696 L 1396 696 Z" fill="hsl(30, 60%, 40%)" stroke="black" stroke-width="1" />
    <text x="1400" y="715" font-family="Inter, sans-serif" font-size="14" fill="#000" text-anchor="middle" font-weight="bold">Kellia (&apos;The Cells&apos;)</text>
    <text x="1400" y="730" font-family="Inter, sans-serif" font-size="14" fill="#000" text-anchor="middle" font-weight="bold">(Semi-eremitic, individual cells)</text>
    <path id="st--antony-s-monastery" d="M 1546 690 L 1554 690 L 1554 696 L 1560 696 L 1560 704 L 1554 704 L 1554 712 L 1546 712 L 1546 704 L 1540 704 L 1540 696 L 1546 696 Z" fill="hsl(0, 70%, 50%)" stroke="black" stroke-width="1" />
    <text x="1550" y="715" font-family="Inter, sans-serif" font-size="14" fill="#000" text-anchor="middle" font-weight="bold">ST. ANTONY&apos;S MONASTERY</text>
    <text x="1550" y="730" font-family="Inter, sans-serif" font-size="14" fill="#000" text-anchor="middle" font-weight="bold">(Founded c. 356 AD)</text>
    <path id="st--paul-s-monastery" d="M 1696 690 L 1704 690 L 1704 696 L 1710 696 L 1710 704 L 1704 704 L 1704 712 L 1696 712 L 1696 704 L 1690 704 L 1690 696 L 1696 696 Z" fill="hsl(0, 70%, 50%)" stroke="black" stroke-width="1" />
    <text x="1700" y="715" font-family="Inter, sans-serif" font-size="14" fill="#000" text-anchor="middle" font-weight="bold">St. Paul&apos;s Monastery</text>
    <text x="1700" y="730" font-family="Inter, sans-serif" font-size="14" fill="#000" text-anchor="middle" font-weight="bold">(Red Sea, near St. Antony&apos;s)</text>
    <path id="tabennisi" d="M 1096 790 L 1104 790 L 1104 796 L 1110 796 L 1110 804 L 1104 804 L 1104 812 L 1096 812 L 1096 804 L 1090 804 L 1090 796 L 1096 796 Z" fill="hsl(30, 60%, 40%)" stroke="black" stroke-width="1" />
    <text x="1100" y="815" font-family="Inter, sans-serif" font-size="14" fill="#000" text-anchor="middle" font-weight="bold">Tabennisi</text>
    <text x="1100" y="830" font-family="Inter, sans-serif" font-size="14" fill="#000" text-anchor="middle" font-weight="bold">(Pachomius, c. 320 AD)</text>
  </g>
</svg>
