<!-- Generated by Jules, Phase 13, Batch B, 2026-03-20 -->
<svg xmlns="http://www.w3.org/2000/svg" viewBox="0 0 2816 1536" width="2816" height="1536">
  <g id="regions">
    <path id="africa-proconsularis" d="M 1058.0 568.0 L 1358.0 568.0 L 1358.0 768.0 L 1058.0 768.0 Z" fill="hsl(0, 70%, 50%)" fill-opacity="0.3" stroke="hsl(0, 70%, 50%)" stroke-width="2" />
    <text x="1208" y="668" font-family="Inter, sans-serif" font-size="24" fill="#000" text-anchor="middle" font-weight="bold">AFRICA PROCONSULARIS</text>
    <path id="numidia" d="M 1108.0 618.0 L 1408.0 618.0 L 1408.0 818.0 L 1108.0 818.0 Z" fill="hsl(30, 80%, 50%)" fill-opacity="0.3" stroke="hsl(30, 80%, 50%)" stroke-width="2" />
    <text x="1258" y="718" font-family="Inter, sans-serif" font-size="24" fill="#000" text-anchor="middle" font-weight="bold">NUMIDIA</text>
    <path id="mauretania-caesariensis" d="M 1158.0 668.0 L 1458.0 668.0 L 1458.0 868.0 L 1158.0 868.0 Z" fill="hsl(120, 60%, 50%)" fill-opacity="0.3" stroke="hsl(120, 60%, 50%)" stroke-width="2" />
    <text x="1308" y="768" font-family="Inter, sans-serif" font-size="24" fill="#000" text-anchor="middle" font-weight="bold">MAURETANIA CAESARIENSIS</text>
    <path id="mauretania-tingitana" d="M 1208.0 718.0 L 1508.0 718.0 L 1508.0 918.0 L 1208.0 918.0 Z" fill="hsl(210, 60%, 50%)" fill-opacity="0.3" stroke="hsl(210, 60%, 50%)" stroke-width="2" />
    <text x="1358" y="818" font-family="Inter, sans-serif" font-size="24" fill="#000" text-anchor="middle" font-weight="bold">MAURETANIA TINGITANA</text>
    <path id="cyrenaica" d="M 1258.0 768.0 L 1558.0 768.0 L 1558.0 968.0 L 1258.0 968.0 Z" fill="hsl(270, 60%, 50%)" fill-opacity="0.3" stroke="hsl(270, 60%, 50%)" stroke-width="2" />
    <text x="1408" y="868" font-family="Inter, sans-serif" font-size="24" fill="#000" text-anchor="middle" font-weight="bold">CYRENAICA</text>
  </g>
  <g id="routes">
    <path id="mediterranean-coastal-road--via-" d="M 1208 568 Q 1358 518 1508 768" fill="none" stroke="hsl(0, 70%, 50%)" stroke-width="6" stroke-dasharray="10,10" />
    <text x="1358" y="508" font-family="Inter, sans-serif" font-size="20" fill="hsl(0, 70%, 50%)" text-anchor="middle" font-weight="bold">Mediterranean Coastal Road (Via)</text>
    <path id="trans-maghreb-route" d="M 1258 618 Q 1408 568 1558 818" fill="none" stroke="hsl(30, 80%, 50%)" stroke-width="6" stroke-dasharray="10,10" />
    <text x="1408" y="558" font-family="Inter, sans-serif" font-size="20" fill="hsl(30, 80%, 50%)" text-anchor="middle" font-weight="bold">Trans-Maghreb Route</text>
    <path id="limes-tripolitanus--frontier-" d="M 1308 668 Q 1458 618 1608 868" fill="none" stroke="#000" stroke-width="6" stroke-dasharray="10,10" />
    <text x="1458" y="608" font-family="Inter, sans-serif" font-size="20" fill="#000" text-anchor="middle" font-weight="bold">Limes Tripolitanus (Frontier)</text>
  </g>
  <g id="settlements">
    <rect id="carthage" x="1251.6" y="436.49999999999994" width="16" height="16" fill="hsl(0, 70%, 50%)" stroke="black" stroke-width="1" />
    <text x="1274.6" y="449.49999999999994" font-family="Inter, sans-serif" font-size="18" fill="#000" font-weight="bold">Carthage</text>
    <polygon id="hippo-regius" points="1185.8,433.5999999999999 1190.8,443.5999999999999 1200.8,443.5999999999999 1192.8,453.5999999999999 1195.8,463.5999999999999 1185.8,456.5999999999999 1175.8,463.5999999999999 1178.8,453.5999999999999 1170.8,443.5999999999999 1180.8,443.5999999999999" fill="hsl(30, 80%, 50%)" stroke="black" stroke-width="1" />
    <text x="1200.8" y="448.5999999999999" font-family="Inter, sans-serif" font-size="18" fill="#000" font-weight="bold">Hippo Regius</text>
    <rect id="cirta--constantine-" x="1140.3" y="450.9000000000001" width="16" height="16" fill="hsl(30, 80%, 50%)" stroke="black" stroke-width="1" />
    <text x="1163.3" y="463.9000000000001" font-family="Inter, sans-serif" font-size="18" fill="#000" font-weight="bold">Cirta (Constantine)</text>
    <circle id="thagaste" cx="1193.6" cy="461.59999999999997" r="6" fill="hsl(30, 80%, 50%)" stroke="black" stroke-width="1" />
    <text x="1208.6" y="466.59999999999997" font-family="Inter, sans-serif" font-size="18" fill="#000" font-weight="bold">Thagaste</text>
    <rect id="thamugadi--timgad-" x="1136.1" y="477.6000000000001" width="16" height="16" fill="hsl(30, 80%, 50%)" stroke="black" stroke-width="1" />
    <text x="1159.1" y="490.6000000000001" font-family="Inter, sans-serif" font-size="18" fill="#000" font-weight="bold">Thamugadi (Timgad)</text>
    <rect id="caesarea" x="1007.7" y="443.70000000000005" width="16" height="16" fill="hsl(120, 60%, 50%)" stroke="black" stroke-width="1" />
    <text x="1030.7" y="456.70000000000005" font-family="Inter, sans-serif" font-size="18" fill="#000" font-weight="bold">Caesarea</text>
    <rect id="tingis--tangier-" x="768" y="469.20000000000005" width="16" height="16" fill="hsl(210, 60%, 50%)" stroke="black" stroke-width="1" />
    <text x="791" y="482.20000000000005" font-family="Inter, sans-serif" font-size="18" fill="#000" font-weight="bold">Tingis (Tangier)</text>
    <circle id="volubilis" cx="783.5" cy="527.9" r="6" fill="hsl(210, 60%, 50%)" stroke="black" stroke-width="1" />
    <text x="798.5" y="532.9" font-family="Inter, sans-serif" font-size="18" fill="#000" font-weight="bold">Volubilis</text>
    <rect id="leptis-magna" x="1370.7" y="562.8" width="16" height="16" fill="hsl(45, 80%, 50%)" stroke="black" stroke-width="1" />
    <text x="1393.7" y="575.8" font-family="Inter, sans-serif" font-size="18" fill="#000" font-weight="bold">Leptis Magna</text>
    <circle id="sabratha" cx="1324.4" cy="566.0000000000001" r="6" fill="hsl(45, 80%, 50%)" stroke="black" stroke-width="1" />
    <text x="1339.4" y="571.0000000000001" font-family="Inter, sans-serif" font-size="18" fill="#000" font-weight="bold">Sabratha</text>
    <circle id="oea--tripoli-" cx="1345.4" cy="563" r="6" fill="hsl(45, 80%, 50%)" stroke="black" stroke-width="1" />
    <text x="1360.4" y="568" font-family="Inter, sans-serif" font-size="18" fill="#000" font-weight="bold">Oea (Tripoli)</text>
    <rect id="cyrene" x="1597.8" y="557.4" width="16" height="16" fill="hsl(270, 60%, 50%)" stroke="black" stroke-width="1" />
    <text x="1620.8" y="570.4" font-family="Inter, sans-serif" font-size="18" fill="#000" font-weight="bold">Cyrene</text>
    <circle id="apollonia" cx="1609.1" cy="563" r="6" fill="hsl(270, 60%, 50%)" stroke="black" stroke-width="1" />
    <text x="1624.1" y="568" font-family="Inter, sans-serif" font-size="18" fill="#000" font-weight="bold">Apollonia</text>
    <circle id="berenice--benghazi-" cx="1573.1" cy="587.6" r="6" fill="hsl(270, 60%, 50%)" stroke="black" stroke-width="1" />
    <text x="1588.1" y="592.6" font-family="Inter, sans-serif" font-size="18" fill="#000" font-weight="bold">Berenice (Benghazi)</text>
    <polygon id="carthage-christian-center" points="1820,1050 1825,1060 1835,1060 1827,1070 1830,1080 1820,1073 1810,1080 1813,1070 1805,1060 1815,1060" fill="hsl(0, 70%, 50%)" stroke="black" stroke-width="1" />
    <text x="1835" y="1065" font-family="Inter, sans-serif" font-size="18" fill="#000" font-weight="bold">Carthage Christian Center</text>
    <polygon id="hippo-regius-basilica" points="1850,1090 1855,1100 1865,1100 1857,1110 1860,1120 1850,1113 1840,1120 1843,1110 1835,1100 1845,1100" fill="hsl(30, 80%, 50%)" stroke="black" stroke-width="1" />
    <text x="1865" y="1105" font-family="Inter, sans-serif" font-size="18" fill="#000" font-weight="bold">Hippo Regius Basilica</text>
    <polygon id="martyrdom-sites" points="1880,1130 1885,1140 1895,1140 1887,1150 1890,1160 1880,1153 1870,1160 1873,1150 1865,1140 1875,1140" fill="hsl(0, 70%, 50%)" stroke="black" stroke-width="1" />
    <text x="1895" y="1145" font-family="Inter, sans-serif" font-size="18" fill="#000" font-weight="bold">Martyrdom Sites</text>
  </g>
</svg>
