<!-- Generated by Jules, Phase 13, Batch B, 2026-03-20 -->
<svg xmlns="http://www.w3.org/2000/svg" viewBox="0 0 2816 1536" width="2816" height="1536">
  <g id="routes">
    <path id="aksum---adulis--highland-coast-route-" d="M 1200 500 Q 1450 550 1500 800" fill="none" stroke="hsl(30, 60%, 40%)" stroke-width="4" stroke-dasharray="0" />
    <text x="1450" y="530" font-family="Inter, sans-serif" font-size="20" fill="hsl(30, 60%, 40%)" text-anchor="middle" font-weight="bold">Aksum → Adulis (Highland-Coast Route)</text>
    <path id="red-sea-route--north-south-" d="M 1250 550 Q 1500 600 1550 850" fill="none" stroke="hsl(210, 60%, 50%)" stroke-width="4" stroke-dasharray="10,10" />
    <text x="1500" y="580" font-family="Inter, sans-serif" font-size="20" fill="hsl(210, 60%, 50%)" text-anchor="middle" font-weight="bold">Red Sea Route (North-South)</text>
    <path id="red-sea-route--east-west--to-arabia-" d="M 1300 600 Q 1550 650 1600 900" fill="none" stroke="hsl(210, 60%, 50%)" stroke-width="4" stroke-dasharray="10,10" />
    <text x="1550" y="630" font-family="Inter, sans-serif" font-size="20" fill="hsl(210, 60%, 50%)" text-anchor="middle" font-weight="bold">Red Sea Route (East-West, to Arabia)</text>
    <path id="indian-ocean-route" d="M 1350 650 Q 1600 700 1650 950" fill="none" stroke="hsl(270, 60%, 50%)" stroke-width="4" stroke-dasharray="4,4" />
    <text x="1600" y="680" font-family="Inter, sans-serif" font-size="20" fill="hsl(270, 60%, 50%)" text-anchor="middle" font-weight="bold">Indian Ocean Route</text>
  </g>
  <g id="settlements">
    <path id="aksum--axum-" d="M 1096 590 L 1104 590 L 1104 596 L 1110 596 L 1110 604 L 1104 604 L 1104 612 L 1096 612 L 1096 604 L 1090 604 L 1090 596 L 1096 596 Z" fill="hsl(45, 80%, 50%)" stroke="black" stroke-width="1" />
    <text x="1100" y="615" font-family="Inter, sans-serif" font-size="14" fill="#000" text-anchor="middle" font-weight="bold">AKSUM (Capital)</text>
    <text x="1100" y="630" font-family="Inter, sans-serif" font-size="14" fill="#000" text-anchor="middle" font-weight="bold">Elevation: 2,100 m</text>
    <rect id="adulis" x="1242" y="592" width="16" height="16" fill="hsl(210, 60%, 50%)" stroke="black" stroke-width="1" />
    <text x="1250" y="615" font-family="Inter, sans-serif" font-size="14" fill="#000" text-anchor="middle" font-weight="bold">ADULIS</text>
    <text x="1250" y="630" font-family="Inter, sans-serif" font-size="14" fill="#000" text-anchor="middle" font-weight="bold">(Major Red Sea Port)</text>
    <rect id="yeha" x="1392" y="592" width="16" height="16" fill="hsl(30, 60%, 40%)" stroke="black" stroke-width="1" />
    <text x="1400" y="615" font-family="Inter, sans-serif" font-size="14" fill="#000" text-anchor="middle" font-weight="bold">Yeha</text>
    <text x="1400" y="630" font-family="Inter, sans-serif" font-size="14" fill="#000" text-anchor="middle" font-weight="bold">(Pre-Aksumite, D&apos;mt Kingdom c. 800-400 BC)</text>
    <path id="debre-damo" d="M 1546 590 L 1554 590 L 1554 596 L 1560 596 L 1560 604 L 1554 604 L 1554 612 L 1546 612 L 1546 604 L 1540 604 L 1540 596 L 1546 596 Z" fill="hsl(0, 70%, 50%)" stroke="black" stroke-width="1" />
    <text x="1550" y="615" font-family="Inter, sans-serif" font-size="14" fill="#000" text-anchor="middle" font-weight="bold">Debre Damo</text>
    <text x="1550" y="630" font-family="Inter, sans-serif" font-size="14" fill="#000" text-anchor="middle" font-weight="bold">(Monastery, c. 6th c. AD)</text>
    <rect id="himyar-capital--zafar-" x="1692" y="592" width="16" height="16" fill="hsl(30, 80%, 50%)" stroke="black" stroke-width="1" />
    <text x="1700" y="615" font-family="Inter, sans-serif" font-size="14" fill="#000" text-anchor="middle" font-weight="bold">Zafar (Himyar Capital)</text>
    <text x="1700" y="630" font-family="Inter, sans-serif" font-size="14" fill="#000" text-anchor="middle" font-weight="bold">(Yemen, Kaleb&apos;s expedition c. 525 AD)</text>
    <circle id="muza" cx="1100" cy="700" r="6" fill="hsl(30, 80%, 50%)" stroke="black" stroke-width="1" />
    <text x="1100" y="715" font-family="Inter, sans-serif" font-size="14" fill="#000" text-anchor="middle" font-weight="bold">Muza</text>
    <text x="1100" y="730" font-family="Inter, sans-serif" font-size="14" fill="#000" text-anchor="middle" font-weight="bold">(Yemen, Incense trade port)</text>
    <circle id="mecca" cx="1250" cy="700" r="6" fill="hsl(30, 80%, 50%)" stroke="black" stroke-width="1" />
    <text x="1250" y="715" font-family="Inter, sans-serif" font-size="14" fill="#000" text-anchor="middle" font-weight="bold">Mecca</text>
    <text x="1250" y="730" font-family="Inter, sans-serif" font-size="14" fill="#000" text-anchor="middle" font-weight="bold">(Islamic tradition: Muhammad&apos;s followers refuge in Aksum, c. 615 AD)</text>
  </g>
</svg>
