<!-- Generated by Jules, Phase 13, Batch B, 2026-03-20 -->
<svg xmlns="http://www.w3.org/2000/svg" viewBox="0 0 2816 1536" width="2816" height="1536">
  <g id="regions">
    <path id="nile-river" d="M 1058.0 568.0 L 1358.0 568.0 L 1358.0 768.0 L 1058.0 768.0 Z" fill="hsl(210, 60%, 50%)" fill-opacity="0.3" stroke="hsl(210, 60%, 50%)" stroke-width="2" />
    <text x="1208" y="668" font-family="Inter, sans-serif" font-size="24" fill="#000" text-anchor="middle" font-weight="bold">NILE RIVER</text>
    <path id="nile-delta" d="M 1108.0 618.0 L 1408.0 618.0 L 1408.0 818.0 L 1108.0 818.0 Z" fill="hsl(120, 60%, 50%)" fill-opacity="0.3" stroke="hsl(120, 60%, 50%)" stroke-width="2" />
    <text x="1258" y="718" font-family="Inter, sans-serif" font-size="24" fill="#000" text-anchor="middle" font-weight="bold">NILE DELTA</text>
    <path id="first-cataract" d="M 1158.0 668.0 L 1458.0 668.0 L 1458.0 868.0 L 1158.0 868.0 Z" fill="hsl(0, 0%, 50%)" fill-opacity="0.3" stroke="hsl(0, 0%, 50%)" stroke-width="2" />
    <text x="1308" y="768" font-family="Inter, sans-serif" font-size="24" fill="#000" text-anchor="middle" font-weight="bold">FIRST CATARACT</text>
    <path id="western-desert--libyan-desert-" d="M 1208.0 718.0 L 1508.0 718.0 L 1508.0 918.0 L 1208.0 918.0 Z" fill="hsl(45, 80%, 50%)" fill-opacity="0.3" stroke="hsl(45, 80%, 50%)" stroke-width="2" />
    <text x="1358" y="818" font-family="Inter, sans-serif" font-size="24" fill="#000" text-anchor="middle" font-weight="bold">WESTERN DESERT (LIBYAN DESERT)</text>
    <path id="eastern-desert" d="M 1258.0 768.0 L 1558.0 768.0 L 1558.0 968.0 L 1258.0 968.0 Z" fill="hsl(30, 80%, 50%)" fill-opacity="0.3" stroke="hsl(30, 80%, 50%)" stroke-width="2" />
    <text x="1408" y="868" font-family="Inter, sans-serif" font-size="24" fill="#000" text-anchor="middle" font-weight="bold">EASTERN DESERT</text>
    <path id="sinai-peninsula" d="M 1308.0 818.0 L 1608.0 818.0 L 1608.0 1018.0 L 1308.0 1018.0 Z" fill="hsl(30, 80%, 50%)" fill-opacity="0.3" stroke="hsl(30, 80%, 50%)" stroke-width="2" />
    <text x="1458" y="918" font-family="Inter, sans-serif" font-size="24" fill="#000" text-anchor="middle" font-weight="bold">SINAI PENINSULA</text>
  </g>
  <g id="routes">
    <path id="nile-river-navigation" d="M 1208 568 Q 1358 518 1508 768" fill="none" stroke="hsl(210, 60%, 50%)" stroke-width="6" stroke-dasharray="10,10" />
    <text x="1358" y="508" font-family="Inter, sans-serif" font-size="20" fill="hsl(210, 60%, 50%)" text-anchor="middle" font-weight="bold">Nile River Navigation</text>
    <path id="red-sea-trade-route" d="M 1258 618 Q 1408 568 1558 818" fill="none" stroke="hsl(0, 70%, 50%)" stroke-width="6" stroke-dasharray="10,10" />
    <text x="1408" y="558" font-family="Inter, sans-serif" font-size="20" fill="hsl(0, 70%, 50%)" text-anchor="middle" font-weight="bold">Red Sea Trade Route</text>
    <path id="grain-export-route" d="M 1308 668 Q 1458 618 1608 868" fill="none" stroke="hsl(45, 80%, 50%)" stroke-width="6" stroke-dasharray="10,10" />
    <text x="1458" y="608" font-family="Inter, sans-serif" font-size="20" fill="hsl(45, 80%, 50%)" text-anchor="middle" font-weight="bold">Grain Export Route</text>
  </g>
  <g id="settlements">
    <rect id="alexandria" x="1839.6" y="606" width="16" height="16" fill="hsl(45, 80%, 50%)" stroke="black" stroke-width="1" />
    <text x="1862.6" y="619" font-family="Inter, sans-serif" font-size="18" fill="#000" font-weight="bold">Alexandria</text>
    <rect id="memphis" x="1879.5" y="646.5" width="16" height="16" fill="hsl(30, 80%, 50%)" stroke="black" stroke-width="1" />
    <text x="1902.5" y="659.5" font-family="Inter, sans-serif" font-size="18" fill="#000" font-weight="bold">Memphis</text>
    <circle id="oxyrhynchus" cx="1869.8" cy="693.8000000000001" r="6" fill="hsl(270, 60%, 50%)" stroke="black" stroke-width="1" />
    <text x="1884.8" y="698.8000000000001" font-family="Inter, sans-serif" font-size="18" fill="#000" font-weight="bold">Oxyrhynchus</text>
    <rect id="thebes--luxor-" x="1921.2" y="771" width="16" height="16" fill="hsl(30, 80%, 50%)" stroke="black" stroke-width="1" />
    <text x="1944.2" y="784" font-family="Inter, sans-serif" font-size="18" fill="#000" font-weight="bold">Thebes (Luxor)</text>
    <circle id="syene--aswan-" cx="1937" cy="827.3" r="6" fill="hsl(0, 0%, 50%)" stroke="black" stroke-width="1" />
    <text x="1952" y="832.3" font-family="Inter, sans-serif" font-size="18" fill="#000" font-weight="bold">Syene (Aswan)</text>
    <polygon id="nitria" points="1850,629.5 1855,639.5 1865,639.5 1857,649.5 1860,659.5 1850,652.5 1840,659.5 1843,649.5 1835,639.5 1845,639.5" fill="hsl(30, 80%, 50%)" stroke="black" stroke-width="1" />
    <text x="1865" y="644.5" font-family="Inter, sans-serif" font-size="18" fill="#000" font-weight="bold">Nitria</text>
    <polygon id="scetis--wadi-el-natrun-" points="1845.5,632.5 1850.5,642.5 1860.5,642.5 1852.5,652.5 1855.5,662.5 1845.5,655.5 1835.5,662.5 1838.5,652.5 1830.5,642.5 1840.5,642.5" fill="hsl(30, 80%, 50%)" stroke="black" stroke-width="1" />
    <text x="1860.5" y="647.5" font-family="Inter, sans-serif" font-size="18" fill="#000" font-weight="bold">Scetis (Wadi el-Natrun)</text>
    <polygon id="kellia---the-cells--" points="1847.6,631 1852.6,641 1862.6,641 1854.6,651 1857.6,661 1847.6,654 1837.6,661 1840.6,651 1832.6,641 1842.6,641" fill="hsl(30, 80%, 50%)" stroke="black" stroke-width="1" />
    <text x="1862.6" y="646" font-family="Inter, sans-serif" font-size="18" fill="#000" font-weight="bold">Kellia ('The Cells')</text>
    <polygon id="st--antony-s-monastery" points="1920.5,670 1925.5,680 1935.5,680 1927.5,690 1930.5,700 1920.5,693 1910.5,700 1913.5,690 1905.5,680 1915.5,680" fill="hsl(0, 70%, 50%)" stroke="black" stroke-width="1" />
    <text x="1935.5" y="685" font-family="Inter, sans-serif" font-size="18" fill="#000" font-weight="bold">St. Antony's Monastery</text>
    <polygon id="st--paul-s-monastery" points="1922,672.1 1927,682.1 1937,682.1 1929,692.1 1932,702.1 1922,695.1 1912,702.1 1915,692.1 1907,682.1 1917,682.1" fill="hsl(0, 70%, 50%)" stroke="black" stroke-width="1" />
    <text x="1937" y="687.1" font-family="Inter, sans-serif" font-size="18" fill="#000" font-weight="bold">St. Paul's Monastery</text>
    <polygon id="tabennisi" points="1929.5,755.5 1934.5,765.5 1944.5,765.5 1936.5,775.5 1939.5,785.5 1929.5,778.5 1919.5,785.5 1922.5,775.5 1914.5,765.5 1924.5,765.5" fill="hsl(30, 80%, 50%)" stroke="black" stroke-width="1" />
    <text x="1944.5" y="770.5" font-family="Inter, sans-serif" font-size="18" fill="#000" font-weight="bold">Tabennisi</text>
  </g>
</svg>
