<!-- Generated by Jules, Phase 13, Batch B, 2026-03-20 -->
<svg xmlns="http://www.w3.org/2000/svg" viewBox="0 0 2816 1536" width="2816" height="1536">
  <g id="regions">
    <path id="africa-proconsularis" d="M 1000 600 L 1300 600 L 1300 800 L 1000 800 Z" fill="hsl(0, 70%, 50%)" fill-opacity="0.3" stroke="hsl(0, 70%, 50%)" stroke-width="2" />
    <text x="1150" y="685" font-family="Inter, sans-serif" font-size="24" fill="#000" text-anchor="middle" font-weight="bold">AFRICA PROCONSULARIS</text>
    <text x="1150" y="715" font-family="Inter, sans-serif" font-size="24" fill="#000" text-anchor="middle" font-weight="bold">(Senatorial Province)</text>
    <text x="1150" y="745" font-family="Inter, sans-serif" font-size="24" fill="#000" text-anchor="middle" font-weight="bold">Capital: Carthage</text>
    <path id="numidia" d="M 1150 650 L 1450 650 L 1450 850 L 1150 850 Z" fill="hsl(30, 80%, 50%)" fill-opacity="0.3" stroke="hsl(30, 80%, 50%)" stroke-width="2" />
    <text x="1300" y="735" font-family="Inter, sans-serif" font-size="24" fill="#000" text-anchor="middle" font-weight="bold">NUMIDIA</text>
    <text x="1300" y="765" font-family="Inter, sans-serif" font-size="24" fill="#000" text-anchor="middle" font-weight="bold">(Imperial Province, 3rd c. AD)</text>
    <text x="1300" y="795" font-family="Inter, sans-serif" font-size="24" fill="#000" text-anchor="middle" font-weight="bold">Capital: Cirta (Constantine)</text>
    <path id="mauretania-caesariensis" d="M 1300 700 L 1600 700 L 1600 900 L 1300 900 Z" fill="hsl(120, 60%, 50%)" fill-opacity="0.3" stroke="hsl(120, 60%, 50%)" stroke-width="2" />
    <text x="1450" y="785" font-family="Inter, sans-serif" font-size="24" fill="#000" text-anchor="middle" font-weight="bold">MAURETANIA CAESARIENSIS</text>
    <text x="1450" y="815" font-family="Inter, sans-serif" font-size="24" fill="#000" text-anchor="middle" font-weight="bold">Capital: Caesarea (Cherchell)</text>
    <path id="mauretania-tingitana" d="M 1450 750 L 1750 750 L 1750 950 L 1450 950 Z" fill="hsl(210, 60%, 50%)" fill-opacity="0.3" stroke="hsl(210, 60%, 50%)" stroke-width="2" />
    <text x="1600" y="835" font-family="Inter, sans-serif" font-size="24" fill="#000" text-anchor="middle" font-weight="bold">MAURETANIA TINGITANA</text>
    <text x="1600" y="865" font-family="Inter, sans-serif" font-size="24" fill="#000" text-anchor="middle" font-weight="bold">Capital: Tingis (Tangier)</text>
    <path id="cyrenaica" d="M 1600 800 L 1900 800 L 1900 1000 L 1600 1000 Z" fill="hsl(270, 60%, 50%)" fill-opacity="0.3" stroke="hsl(270, 60%, 50%)" stroke-width="2" />
    <text x="1750" y="885" font-family="Inter, sans-serif" font-size="24" fill="#000" text-anchor="middle" font-weight="bold">CYRENAICA</text>
    <text x="1750" y="915" font-family="Inter, sans-serif" font-size="24" fill="#000" text-anchor="middle" font-weight="bold">(+ Crete)</text>
    <text x="1750" y="945" font-family="Inter, sans-serif" font-size="24" fill="#000" text-anchor="middle" font-weight="bold">Capital: Cyrene</text>
    <text x="1750" y="975" font-family="Inter, sans-serif" font-size="24" fill="#000" text-anchor="middle" font-weight="bold">Biblical: Acts 2:10, 11:20</text>
  </g>
  <g id="routes">
    <path id="mediterranean-coastal-road--via-" d="M 1200 500 Q 1450 550 1500 800" fill="none" stroke="hsl(0, 70%, 50%)" stroke-width="4" stroke-dasharray="0" />
    <text x="1450" y="530" font-family="Inter, sans-serif" font-size="20" fill="hsl(0, 70%, 50%)" text-anchor="middle" font-weight="bold">Mediterranean Coastal Road (Via)</text>
    <path id="trans-maghreb-route" d="M 1250 550 Q 1500 600 1550 850" fill="none" stroke="hsl(30, 60%, 40%)" stroke-width="4" stroke-dasharray="10,10" />
    <text x="1500" y="580" font-family="Inter, sans-serif" font-size="20" fill="hsl(30, 60%, 40%)" text-anchor="middle" font-weight="bold">Trans-Maghreb Route</text>
    <path id="limes-tripolitanus--frontier-" d="M 1300 600 Q 1550 650 1600 900" fill="none" stroke="#000" stroke-width="4" stroke-dasharray="4,4" />
    <text x="1550" y="630" font-family="Inter, sans-serif" font-size="20" fill="#000" text-anchor="middle" font-weight="bold">Limes Tripolitanus (Frontier)</text>
  </g>
  <g id="settlements">
    <rect id="carthage" x="1092" y="592" width="16" height="16" fill="hsl(0, 70%, 50%)" stroke="black" stroke-width="1" />
    <text x="1100" y="615" font-family="Inter, sans-serif" font-size="14" fill="#000" text-anchor="middle" font-weight="bold">CARTHAGE</text>
    <text x="1100" y="630" font-family="Inter, sans-serif" font-size="14" fill="#000" text-anchor="middle" font-weight="bold">(Rebuilt 29 BC)</text>
    <path id="hippo-regius" d="M 1246 590 L 1254 590 L 1254 596 L 1260 596 L 1260 604 L 1254 604 L 1254 612 L 1246 612 L 1246 604 L 1240 604 L 1240 596 L 1246 596 Z" fill="hsl(30, 80%, 50%)" stroke="black" stroke-width="1" />
    <text x="1250" y="615" font-family="Inter, sans-serif" font-size="14" fill="#000" text-anchor="middle" font-weight="bold">Hippo Regius</text>
    <text x="1250" y="630" font-family="Inter, sans-serif" font-size="14" fill="#000" text-anchor="middle" font-weight="bold">(Augustine&apos;s See, 396-430 AD)</text>
    <rect id="cirta--constantine-" x="1392" y="592" width="16" height="16" fill="hsl(30, 80%, 50%)" stroke="black" stroke-width="1" />
    <text x="1400" y="615" font-family="Inter, sans-serif" font-size="14" fill="#000" text-anchor="middle" font-weight="bold">Cirta (Constantine)</text>
    <text x="1400" y="630" font-family="Inter, sans-serif" font-size="14" fill="#000" text-anchor="middle" font-weight="bold">Numidian Capital</text>
    <circle id="thagaste" cx="1550" cy="600" r="6" fill="hsl(30, 80%, 50%)" stroke="black" stroke-width="1" />
    <text x="1550" y="615" font-family="Inter, sans-serif" font-size="14" fill="#000" text-anchor="middle" font-weight="bold">Thagaste</text>
    <text x="1550" y="630" font-family="Inter, sans-serif" font-size="14" fill="#000" text-anchor="middle" font-weight="bold">(Augustine&apos;s Birthplace, 354 AD)</text>
    <rect id="thamugadi--timgad-" x="1692" y="592" width="16" height="16" fill="hsl(30, 80%, 50%)" stroke="black" stroke-width="1" />
    <text x="1700" y="615" font-family="Inter, sans-serif" font-size="14" fill="#000" text-anchor="middle" font-weight="bold">Thamugadi (Timgad)</text>
    <text x="1700" y="630" font-family="Inter, sans-serif" font-size="14" fill="#000" text-anchor="middle" font-weight="bold">(Trajan&apos;s Colony, 100 AD)</text>
    <rect id="caesarea" x="1092" y="692" width="16" height="16" fill="hsl(120, 60%, 50%)" stroke="black" stroke-width="1" />
    <text x="1100" y="715" font-family="Inter, sans-serif" font-size="14" fill="#000" text-anchor="middle" font-weight="bold">Caesarea (Cherchell)</text>
    <text x="1100" y="730" font-family="Inter, sans-serif" font-size="14" fill="#000" text-anchor="middle" font-weight="bold">Capital of Mauretania Caesariensis</text>
    <rect id="tingis--tangier-" x="1242" y="692" width="16" height="16" fill="hsl(210, 60%, 50%)" stroke="black" stroke-width="1" />
    <text x="1250" y="715" font-family="Inter, sans-serif" font-size="14" fill="#000" text-anchor="middle" font-weight="bold">Tingis (Tangier)</text>
    <text x="1250" y="730" font-family="Inter, sans-serif" font-size="14" fill="#000" text-anchor="middle" font-weight="bold">Capital of Mauretania Tingitana</text>
    <circle id="volubilis" cx="1400" cy="700" r="6" fill="hsl(210, 60%, 50%)" stroke="black" stroke-width="1" />
    <text x="1400" y="715" font-family="Inter, sans-serif" font-size="14" fill="#000" text-anchor="middle" font-weight="bold">Volubilis</text>
    <text x="1400" y="730" font-family="Inter, sans-serif" font-size="14" fill="#000" text-anchor="middle" font-weight="bold">(Roman Morocco)</text>
    <rect id="leptis-magna" x="1542" y="692" width="16" height="16" fill="hsl(45, 80%, 50%)" stroke="black" stroke-width="1" />
    <text x="1550" y="715" font-family="Inter, sans-serif" font-size="14" fill="#000" text-anchor="middle" font-weight="bold">Leptis Magna</text>
    <text x="1550" y="730" font-family="Inter, sans-serif" font-size="14" fill="#000" text-anchor="middle" font-weight="bold">(Septimius Severus, Emperor 193-211 AD)</text>
    <circle id="sabratha" cx="1700" cy="700" r="6" fill="hsl(45, 80%, 50%)" stroke="black" stroke-width="1" />
    <text x="1700" y="715" font-family="Inter, sans-serif" font-size="14" fill="#000" text-anchor="middle" font-weight="bold">Sabratha</text>
    <text x="1700" y="730" font-family="Inter, sans-serif" font-size="14" fill="#000" text-anchor="middle" font-weight="bold">(Grain export port)</text>
    <circle id="oea--tripoli-" cx="1100" cy="800" r="6" fill="hsl(45, 80%, 50%)" stroke="black" stroke-width="1" />
    <text x="1100" y="815" font-family="Inter, sans-serif" font-size="14" fill="#000" text-anchor="middle" font-weight="bold">Oea (Tripoli)</text>
    <text x="1100" y="830" font-family="Inter, sans-serif" font-size="14" fill="#000" text-anchor="middle" font-weight="bold">(Tripolitania)</text>
    <path id="cyrene" d="M 1246 790 L 1254 790 L 1254 796 L 1260 796 L 1260 804 L 1254 804 L 1254 812 L 1246 812 L 1246 804 L 1240 804 L 1240 796 L 1246 796 Z" fill="hsl(270, 60%, 50%)" stroke="black" stroke-width="1" />
    <text x="1250" y="815" font-family="Inter, sans-serif" font-size="14" fill="#000" text-anchor="middle" font-weight="bold">CYRENE</text>
    <text x="1250" y="830" font-family="Inter, sans-serif" font-size="14" fill="#000" text-anchor="middle" font-weight="bold">(Greek foundation, 631 BC)</text>
    <circle id="apollonia" cx="1400" cy="800" r="6" fill="hsl(270, 60%, 50%)" stroke="black" stroke-width="1" />
    <text x="1400" y="815" font-family="Inter, sans-serif" font-size="14" fill="#000" text-anchor="middle" font-weight="bold">Apollonia</text>
    <text x="1400" y="830" font-family="Inter, sans-serif" font-size="14" fill="#000" text-anchor="middle" font-weight="bold">(Port for Cyrene)</text>
    <circle id="berenice--benghazi-" cx="1550" cy="800" r="6" fill="hsl(270, 60%, 50%)" stroke="black" stroke-width="1" />
    <text x="1550" y="815" font-family="Inter, sans-serif" font-size="14" fill="#000" text-anchor="middle" font-weight="bold">Berenice (Benghazi)</text>
    <path id="carthage-christian-center" d="M 1696 790 L 1704 790 L 1704 796 L 1710 796 L 1710 804 L 1704 804 L 1704 812 L 1696 812 L 1696 804 L 1690 804 L 1690 796 L 1696 796 Z" fill="hsl(0, 70%, 50%)" stroke="black" stroke-width="1" />
    <text x="1700" y="815" font-family="Inter, sans-serif" font-size="14" fill="#000" text-anchor="middle" font-weight="bold">Carthage Christian Center</text>
    <path id="hippo-regius-basilica" d="M 1096 890 L 1104 890 L 1104 896 L 1110 896 L 1110 904 L 1104 904 L 1104 912 L 1096 912 L 1096 904 L 1090 904 L 1090 896 L 1096 896 Z" fill="hsl(30, 80%, 50%)" stroke="black" stroke-width="1" />
    <text x="1100" y="915" font-family="Inter, sans-serif" font-size="14" fill="#000" text-anchor="middle" font-weight="bold">Hippo Regius Basilica</text>
    <path id="martyrdom-sites" d="M 1246 890 L 1254 890 L 1254 896 L 1260 896 L 1260 904 L 1254 904 L 1254 912 L 1246 912 L 1246 904 L 1240 904 L 1240 896 L 1246 896 Z" fill="hsl(0, 70%, 50%)" stroke="black" stroke-width="1" />
    <text x="1250" y="915" font-family="Inter, sans-serif" font-size="14" fill="#000" text-anchor="middle" font-weight="bold">Martyrdom Sites</text>
  </g>
</svg>
