<!-- Generated by Jules, Phase 13, Batch B, 2026-03-20 -->
<svg xmlns="http://www.w3.org/2000/svg" viewBox="0 0 2816 1536" width="2816" height="1536">
  <g id="regions">
    <path id="ethiopian-highlands" d="M 1058.0 568.0 L 1358.0 568.0 L 1358.0 768.0 L 1058.0 768.0 Z" fill="hsl(120, 60%, 50%)" fill-opacity="0.3" stroke="hsl(120, 60%, 50%)" stroke-width="2" />
    <text x="1208" y="668" font-family="Inter, sans-serif" font-size="24" fill="#000" text-anchor="middle" font-weight="bold">ETHIOPIAN HIGHLANDS</text>
    <path id="red-sea" d="M 1108.0 618.0 L 1408.0 618.0 L 1408.0 818.0 L 1108.0 818.0 Z" fill="hsl(210, 60%, 50%)" fill-opacity="0.3" stroke="hsl(210, 60%, 50%)" stroke-width="2" />
    <text x="1258" y="718" font-family="Inter, sans-serif" font-size="24" fill="#000" text-anchor="middle" font-weight="bold">RED SEA</text>
    <path id="gulf-of-aden" d="M 1158.0 668.0 L 1458.0 668.0 L 1458.0 868.0 L 1158.0 868.0 Z" fill="hsl(210, 60%, 50%)" fill-opacity="0.3" stroke="hsl(210, 60%, 50%)" stroke-width="2" />
    <text x="1308" y="768" font-family="Inter, sans-serif" font-size="24" fill="#000" text-anchor="middle" font-weight="bold">GULF OF ADEN</text>
    <path id="lake-tana" d="M 1208.0 718.0 L 1508.0 718.0 L 1508.0 918.0 L 1208.0 918.0 Z" fill="hsl(210, 60%, 50%)" fill-opacity="0.3" stroke="hsl(210, 60%, 50%)" stroke-width="2" />
    <text x="1358" y="818" font-family="Inter, sans-serif" font-size="24" fill="#000" text-anchor="middle" font-weight="bold">LAKE TANA</text>
  </g>
  <g id="routes">
    <path id="aksum---adulis--highland-coast-route-" d="M 1208 568 Q 1358 518 1508 768" fill="none" stroke="hsl(30, 80%, 50%)" stroke-width="6" stroke-dasharray="10,10" />
    <text x="1358" y="508" font-family="Inter, sans-serif" font-size="20" fill="hsl(30, 80%, 50%)" text-anchor="middle" font-weight="bold">Aksum → Adulis (Highland-Coast Route)</text>
    <path id="red-sea-route--north-south-" d="M 1258 618 Q 1408 568 1558 818" fill="none" stroke="hsl(210, 60%, 50%)" stroke-width="6" stroke-dasharray="10,10" />
    <text x="1408" y="558" font-family="Inter, sans-serif" font-size="20" fill="hsl(210, 60%, 50%)" text-anchor="middle" font-weight="bold">Red Sea Route (North-South)</text>
    <path id="red-sea-route--east-west--to-arabia-" d="M 1308 668 Q 1458 618 1608 868" fill="none" stroke="hsl(210, 60%, 50%)" stroke-width="6" stroke-dasharray="10,10" />
    <text x="1458" y="608" font-family="Inter, sans-serif" font-size="20" fill="hsl(210, 60%, 50%)" text-anchor="middle" font-weight="bold">Red Sea Route (East-West, to Arabia)</text>
    <path id="indian-ocean-route" d="M 1358 718 Q 1508 668 1658 918" fill="none" stroke="hsl(270, 60%, 50%)" stroke-width="6" stroke-dasharray="10,10" />
    <text x="1508" y="658" font-family="Inter, sans-serif" font-size="20" fill="hsl(270, 60%, 50%)" text-anchor="middle" font-weight="bold">Indian Ocean Route</text>
  </g>
  <g id="settlements">
    <polygon id="aksum--axum-" points="2111.6,1116.1 2116.6,1126.1 2126.6,1126.1 2118.6,1136.1 2121.6,1146.1 2111.6,1139.1 2101.6,1146.1 2104.6,1136.1 2096.6,1126.1 2106.6,1126.1" fill="hsl(45, 80%, 50%)" stroke="black" stroke-width="1" />
    <text x="2126.6" y="1131.1" font-family="Inter, sans-serif" font-size="18" fill="#000" font-weight="bold">Aksum (Axum)</text>
    <rect id="adulis" x="2132.1" y="1083.6" width="16" height="16" fill="hsl(210, 60%, 50%)" stroke="black" stroke-width="1" />
    <text x="2155.1" y="1096.6" font-family="Inter, sans-serif" font-size="18" fill="#000" font-weight="bold">Adulis</text>
    <rect id="yeha" x="2112.6000000000004" y="1113.6" width="16" height="16" fill="hsl(30, 80%, 50%)" stroke="black" stroke-width="1" />
    <text x="2135.6000000000004" y="1126.6" font-family="Inter, sans-serif" font-size="18" fill="#000" font-weight="bold">Yeha</text>
    <polygon id="debre-damo" points="2128.4,1108.6 2133.4,1118.6 2143.4,1118.6 2135.4,1128.6 2138.4,1138.6 2128.4,1131.6 2118.4,1138.6 2121.4,1128.6 2113.4,1118.6 2123.4,1118.6" fill="hsl(0, 70%, 50%)" stroke="black" stroke-width="1" />
    <text x="2143.4" y="1123.6" font-family="Inter, sans-serif" font-size="18" fill="#000" font-weight="bold">Debre Damo</text>
    <rect id="himyar-capital--zafar-" x="2274" y="1115.4" width="16" height="16" fill="hsl(30, 80%, 50%)" stroke="black" stroke-width="1" />
    <text x="2297" y="1128.4" font-family="Inter, sans-serif" font-size="18" fill="#000" font-weight="bold">Himyar Capital (Zafar)</text>
    <circle id="muza" cx="2247.5" cy="1150.1" r="6" fill="hsl(30, 80%, 50%)" stroke="black" stroke-width="1" />
    <text x="2262.5" y="1155.1" font-family="Inter, sans-serif" font-size="18" fill="#000" font-weight="bold">Muza</text>
    <circle id="mecca" cx="2144.6" cy="907.4" r="6" fill="hsl(30, 80%, 50%)" stroke="black" stroke-width="1" />
    <text x="2159.6" y="912.4" font-family="Inter, sans-serif" font-size="18" fill="#000" font-weight="bold">Mecca</text>
  </g>
</svg>
